# xmcd CD database file
#
# Track frame offsets:
#	150
#	14933
#	28749
#	49250
#	66390
#	83825
#	98322
#	114394
#	132392
#	146142
#	164448
#	179022
#	196897
#	213457
#	238445
#	268426
#	300199
#
# Disc length: 4480 seconds
#
# Revision: 0
# Processed by: cddbd v1.5.1PL0 Copyright (c) Steve Scherf et al.
# Submitted via: CDex 1.51
#
DISCID=05117e11
DTITLE=Various Artist - Promo Only Canada April 2005 Rhythm Radio
DYEAR=2005
DGENRE=Country
TTITLE0=Sunset Strippers - Falling Star (Radio Edit)
TTITLE1=Daft Punk - Robot Rock (Edit)
TTITLE2=Starsailor - Four To The Floor (Thin White Duke Mix)
TTITLE3=Shapeshfiters - Back To Basics (Radio Edit)
TTITLE4=Kane - Rain Down On Me (Tiësto Remix Edit)
TTITLE5=The Lovefreekz - Shine (Radio Edit)
TTITLE6=Disco Kings - Born To Be Alive (Full Vocal Radio)
TTITLE7=Rachael Starr - Till There Was You (Original Radio)
TTITLE8=Commander Tom - Attention (Radio Edit)
TTITLE9=Jonathan Peters F Sylver Logan Sharp - All This Time
TTITLE10=Reflekt Feat. Delline Bass - Need To Feel Love (Radio Edit)
TTITLE11=Judge Jules vs. Michael Woods - So Special (Radio Edit)
TTITLE12=Olav Basoski - Waterman (Original Radio Mix)
TTITLE13=Anneke Van Hoof - You Lie To Me (Extended Mix)
TTITLE14=Scarf! - Odysee (Plazmatek Extended Mix)
TTITLE15=Axwell - Feel The Vibe (Original Mix)
TTITLE16=DT8 Project - Winter (Original Mix)
EXTD=YEAR: 2005
EXTT0=
EXTT1=
EXTT2=
EXTT3=
EXTT4=
EXTT5=
EXTT6=
EXTT7=
EXTT8=
EXTT9=
EXTT10=
EXTT11=
EXTT12=
EXTT13=
EXTT14=
EXTT15=
EXTT16=
PLAYORDER=
